GREETZ: UnDeaD - BadGirl2k9 - virusofsaten - foxyb - WICCYWOLF - lizzymwah1

RELEASE NAME: Outbreak.Anatomy.Of.A.Plague.2010.DVDRip.x264-SDTeam
SIZE: 351 MB

LANGUAGE: English
IMDb: http://www.imdb.com/title/tt1673645/

PLOT: Patient Zero is a stewardess, stricken with 
what she thinks is chickenpox. She goes to ground in a 
Montreal hotel room. A few weeks later, she's back on the 
job, unaware of her role in an impending public health 
catastrophe. Pandemics have killed more people throughout 
history than all wars combined. They are unpredictable - 
and inevitable. Are we ready for the next big one? 
Outbreak: Anatomy of a Plague juxtaposes a 21st century scenario 
against the little-known story of the 1885 smallpox epidemic that 
devastated Montreal. Combining brisk narrative with rigorous 
research, it vividly evokes a modern city under siege, drawing 
eerie parallels with 1885. Confronted with social unrest, ethnic 
scapegoating and economic ruin, authorities struggle to maintain 
control - and to contain a deadly infection.

SCREENS: 
http://i658.photobucket.com/albums/uu309/BadGirl2k9/screens/vlcsnap-2010-07-31-17h40m54s253.png 
http://i658.photobucket.com/albums/uu309/BadGirl2k9/screens/vlcsnap-2010-07-31-17h40m44s128.png

General
Format                           : AVI
Format/Info                      : Audio Video Interleave
File size                        : 352 MiB
Duration                         : 1h 24mn
Overall bit rate                 : 584 Kbps
Writing application              : MEncoder SVN-r22963
Writing library                  : MPlayer

Video
ID                               : 0
Format                           : MPEG-4 Visual
Format profile                   : Simple@L3
Format settings, BVOP            : No
Format settings, QPel            : No
Format settings, GMC             : No warppoints
Format settings, Matrix          : Default (H.263)
Codec ID                         : XVID
Codec ID/Hint                    : XviD
Duration                         : 1h 24mn
Bit rate                         : 508 Kbps
Width                            : 512 pixels
Height                           : 272 pixels
Display aspect ratio             : 1.882
Frame rate                       : 23.976 fps
Resolution                       : 8 bits
Colorimetry                      : 4:2:0
Scan type                        : Progressive
Bits/(Pixel*Frame)               : 0.152
Stream size                      : 306 MiB (87%)
Writing library                  : XviD 1.1.2 (UTC 2006-11-01)

Audio
ID                               : 1
Format                           : MPEG Audio
Format version                   : Version 1
Format profile                   : Layer 3
Codec ID                         : 55
Codec ID/Hint                    : MP3
Duration                         : 1h 24mn
Bit rate mode                    : Constant
Bit rate                         : 64.0 Kbps
Channel(s)                       : 2 channels
Sampling rate                    : 44.1 KHz
Stream size                      : 38.5 MiB (11%)
Alignment                        : Aligned on interleaves
Interleave, duration             : 26 ms (0.63 video frame)
Interleave, preload duration     : 522 ms
Writing library                  : LAMEUUU-&Â²Â¦â